<svg xmlns="http://www.w3.org/2000/svg" xmlns:xlink="http://www.w3.org/1999/xlink" width="500" zoomAndPan="magnify" viewBox="0 0 375 374.999991" height="500" preserveAspectRatio="xMidYMid meet" version="1.2"><defs><clipPath id="253882fcb6"><path d="M 41 46.476562 L 330.75 46.476562 L 330.75 337.476562 L 41 337.476562 Z M 41 46.476562 "/></clipPath></defs><g id="4eb8d762a5"><g clip-rule="nonzero" clip-path="url(#253882fcb6)"><path style=" stroke:none;fill-rule:nonzero;fill:#facc15;fill-opacity:1;" d="M 329.652344 146.59375 C 329.015625 142.757812 330.058594 140.375 327.210938 137.058594 C 325.875 135.605469 325.527344 133.511719 324.015625 132.351562 C 322.558594 131.476562 321.339844 130.375 319.769531 129.734375 C 317.675781 128.6875 315.46875 128.511719 313.257812 127.933594 C 311.570312 127.351562 309.886719 127.234375 308.140625 127.351562 C 306.863281 126.769531 305.523438 127.117188 304.1875 127.175781 C 301.339844 127.234375 298.488281 126.941406 295.640625 127.523438 C 290.464844 127.699219 285.175781 127.699219 280.117188 129.210938 C 277.441406 130.257812 274.710938 128.746094 272.09375 130.023438 C 270.523438 131.011719 268.605469 129.910156 266.976562 130.605469 C 265.640625 131.246094 264.1875 131.246094 262.789062 131.363281 C 261.859375 131.476562 260.929688 131.652344 260 131.246094 C 259.59375 131.070312 259.128906 131.128906 258.664062 131.246094 C 256.859375 132.058594 254.941406 132.117188 253.023438 132 C 252.152344 131.886719 251.570312 132.582031 250.753906 132.640625 C 249.417969 132.640625 248.023438 133.339844 246.742188 132.464844 C 246.628906 132.351562 246.335938 132.351562 246.160156 132.464844 C 245.347656 132.875 244.535156 132.582031 243.660156 132.464844 C 241.511719 132 236.453125 134.445312 235 132.351562 C 233.136719 129.734375 234.300781 126.128906 231.917969 123.804688 C 231.566406 123.453125 231.277344 122.929688 231.394531 122.464844 C 231.742188 120.605469 230.578125 118.917969 230.753906 117.058594 C 230.753906 116.710938 230.636719 116.363281 230.40625 116.128906 C 229.824219 115.546875 229.765625 114.90625 230 114.210938 C 230.054688 113.976562 230.113281 113.6875 230 113.453125 C 229.359375 111.941406 229.183594 110.316406 228.71875 108.804688 C 228.371094 107.757812 227.964844 106.652344 228.023438 105.664062 C 228.136719 103.335938 227.03125 101.300781 226.625 99.152344 C 226.453125 98.222656 226.453125 97.289062 226.277344 96.417969 C 226.042969 95.257812 225 94.382812 225.230469 93.105469 C 223.835938 91.300781 224.011719 88.976562 223.195312 86.882812 C 222.613281 84.730469 221.566406 82.753906 221.453125 80.488281 C 221.335938 79.789062 221.335938 79.09375 220.636719 78.683594 C 220.230469 78.453125 220.347656 77.988281 220.40625 77.582031 C 220.519531 76.707031 220.636719 75.835938 219.996094 75.023438 C 219.882812 74.847656 219.882812 74.558594 219.882812 74.324219 C 219.882812 73.683594 219.882812 73.105469 219.359375 72.695312 C 219.183594 72.582031 219.066406 72.347656 219.125 72.171875 C 219.417969 71.128906 218.777344 70.371094 218.3125 69.558594 C 217.613281 68.683594 218.078125 67.582031 217.496094 66.765625 C 216.394531 65.488281 216.335938 63.625 215.054688 62.464844 C 214.996094 60.546875 213.078125 60.894531 212.207031 59.730469 C 212.207031 58.976562 212.382812 57.988281 212.03125 57.347656 C 211.335938 56.183594 210.695312 54.90625 209.300781 54.382812 C 208.484375 54.089844 207.90625 53.566406 207.960938 52.636719 C 206.742188 49.03125 200.636719 46.476562 197.03125 46.476562 C 193.660156 46.824219 190.289062 46.882812 187.148438 48.335938 C 185.578125 49.089844 184.125 50.023438 182.613281 50.777344 C 178.542969 52.929688 175.984375 56.824219 172.960938 60.082031 C 171.042969 61.765625 170.636719 64.265625 168.949219 66.070312 C 167.03125 67.929688 166.390625 70.660156 164.820312 72.753906 C 163.078125 74.152344 162.902344 76.417969 161.855469 78.164062 C 162.320312 79.152344 161.507812 79.558594 160.984375 80.140625 C 159.589844 82.117188 158.367188 84.265625 157.960938 86.710938 C 156.214844 89.382812 154.414062 92 153.25 95.023438 C 153.019531 95.664062 153.25 96.417969 152.902344 96.882812 C 151.855469 98.335938 151.214844 100.023438 150.34375 101.59375 C 149.53125 103.105469 148.542969 104.558594 148.25 106.359375 C 148.25 106.710938 148.078125 107 147.785156 107.292969 C 146.796875 108.339844 146.507812 109.617188 146.507812 110.953125 C 146.507812 111.417969 146.507812 111.882812 146.214844 112.234375 C 144.820312 113.511719 144.472656 115.316406 143.832031 116.941406 C 143.425781 117.988281 142.609375 118.917969 142.554688 120.082031 C 142.554688 121.828125 140.285156 122.410156 140.867188 124.269531 C 140.984375 124.851562 140.867188 125.375 140.402344 125.78125 C 139.644531 126.59375 139.179688 127.582031 138.65625 128.511719 C 138.019531 129.675781 137.902344 131.128906 137.320312 132.410156 C 137.726562 133.746094 136.738281 135.433594 135.285156 135.375 C 132.4375 134.910156 130.34375 137.875 127.4375 136.886719 C 126.679688 136.535156 125.925781 137.410156 125.109375 137.234375 C 123.484375 137 122.378906 138.222656 120.808594 138.804688 C 118.65625 136.769531 116.332031 139.910156 113.832031 138.921875 C 113.367188 138.804688 112.902344 139.328125 112.378906 139.210938 C 110.867188 138.804688 109.414062 139.445312 108.015625 139.792969 C 107.027344 140.023438 106.097656 140.664062 105.050781 140.199219 C 104.878906 140.140625 104.527344 140.199219 104.355469 140.257812 C 103.191406 140.78125 101.796875 140.140625 100.632812 140.839844 C 99.296875 140.375 98.074219 141.1875 96.738281 141.1875 C 95.050781 141.1875 93.25 141.246094 91.679688 142.175781 C 91.503906 142.292969 91.273438 142.234375 91.097656 142.234375 C 89.703125 142.003906 88.539062 142.992188 87.203125 142.992188 C 86.445312 142.757812 85.804688 142.992188 85.285156 143.457031 C 83.421875 144.734375 80.863281 143.6875 78.886719 144.96875 C 78.421875 145.199219 77.957031 145.316406 77.433594 145.257812 C 75.515625 145.027344 73.945312 146.304688 72.203125 146.710938 C 69.0625 147.003906 66.15625 148.339844 63.074219 148.570312 C 62.027344 148.570312 61.15625 148.921875 60.457031 149.734375 C 59.757812 150.550781 58.886719 150.605469 58.015625 150.140625 C 57.316406 149.734375 56.621094 149.792969 56.097656 150.257812 C 54.234375 151.886719 51.621094 151.539062 49.699219 152.875 C 42.605469 159.269531 37.546875 164.152344 45.339844 172.933594 C 47.199219 175.199219 49.234375 177.351562 51.328125 179.503906 C 52.085938 180.257812 53.246094 180.492188 53.828125 181.363281 C 55.28125 183.050781 57.027344 184.445312 58.710938 185.839844 C 59.410156 186.363281 59.527344 187.292969 60.164062 187.875 C 62.257812 190.144531 64.699219 191.886719 67.316406 193.515625 C 68.769531 194.792969 70.222656 196.074219 71.851562 197.179688 C 74.527344 199.214844 77.492188 200.898438 80.050781 203.109375 C 82.203125 205.085938 85.109375 205.84375 87.085938 207.933594 C 88.539062 209.503906 90.457031 210.433594 92.203125 211.65625 C 94.0625 212.644531 95.285156 214.679688 97.433594 215.320312 C 97.957031 215.726562 98.132812 216.308594 98.832031 216.597656 C 101.796875 218.050781 103.890625 220.726562 106.679688 222.46875 C 108.714844 223.402344 110.109375 225.085938 111.738281 226.539062 C 112.902344 227.703125 111.679688 229.5625 111.332031 230.902344 C 109.644531 234.039062 109.0625 237.585938 107.667969 240.785156 C 106.96875 242.007812 106.5625 243.34375 106.390625 244.738281 C 106.214844 245.902344 105.867188 247.007812 105.34375 247.996094 C 104.238281 250.03125 103.890625 252.296875 103.308594 254.507812 C 102.84375 256.367188 102.726562 258.34375 101.855469 260.089844 C 101.5625 260.785156 101.386719 261.484375 101.332031 262.238281 C 100.867188 267.066406 99.296875 271.660156 98.714844 276.425781 C 98.421875 279.160156 97.609375 281.890625 97.375 284.625 C 96.214844 287.589844 96.851562 290.902344 95.863281 293.808594 C 95.457031 294.507812 95.34375 295.320312 95.457031 296.136719 C 95.691406 298.8125 95.285156 301.484375 95.34375 304.160156 C 95.398438 306.660156 94.933594 309.21875 96.15625 311.601562 C 96.332031 314.394531 97.433594 316.894531 98.65625 319.335938 C 98.773438 319.566406 98.945312 319.800781 99.121094 319.917969 C 101.5625 321.195312 100.574219 325.207031 103.714844 325.671875 C 104.0625 325.671875 104.238281 325.960938 104.410156 326.195312 C 105.285156 327.53125 106.621094 328.113281 108.132812 328.40625 C 108.539062 328.519531 109.003906 328.871094 109.414062 328.578125 C 110.34375 327.996094 110.980469 328.578125 111.679688 329.042969 C 111.96875 329.277344 112.203125 329.453125 112.609375 329.453125 C 113.714844 329.453125 114.878906 329.742188 115.980469 329.394531 C 116.273438 329.277344 116.5625 329.21875 116.855469 329.394531 C 117.609375 329.859375 118.308594 329.625 119.121094 329.277344 C 119.820312 328.929688 120.632812 329.683594 121.390625 329.101562 C 121.796875 328.8125 122.144531 328.636719 122.609375 328.871094 C 125.515625 329.042969 127.261719 325.960938 129.820312 325.324219 C 131.15625 324.972656 132.4375 324.335938 133.367188 323.230469 C 133.832031 322.648438 134.355469 322.007812 135.050781 321.777344 C 137.667969 320.613281 139.007812 317.882812 141.566406 316.660156 C 142.378906 316.3125 143.132812 315.789062 143.773438 315.148438 C 145.925781 312.996094 148.132812 310.960938 150.691406 309.277344 C 154.296875 306.777344 157.148438 303.460938 160.578125 300.730469 C 162.203125 299.625 163.542969 298.054688 164.996094 296.71875 C 171.449219 290.4375 178.367188 284.683594 184.996094 278.636719 C 188.019531 276.308594 191.042969 273.925781 193.601562 271.078125 C 194.007812 270.613281 194.589844 271.078125 194.707031 271.542969 C 195.230469 272.820312 196.160156 273.808594 197.148438 274.738281 C 200.230469 276.890625 201.335938 280.785156 204.648438 282.820312 C 204.996094 283.054688 205.40625 283.230469 205.40625 283.695312 C 205.40625 284.855469 206.21875 285.730469 207.03125 286.25 C 208.660156 287.242188 209.300781 288.984375 210.40625 290.320312 C 211.507812 291.71875 212.613281 292.996094 214.007812 294.042969 C 214.417969 294.332031 214.882812 294.566406 215.054688 295.089844 C 215.464844 296.484375 216.683594 297.355469 217.554688 298.34375 C 219.941406 300.789062 221.800781 303.753906 224.53125 305.902344 C 225.230469 306.835938 225.871094 307.707031 226.859375 308.402344 C 227.148438 308.636719 227.5 308.867188 227.671875 309.277344 C 228.253906 310.789062 230.171875 310.730469 230.929688 312.183594 C 231.917969 313.347656 232.789062 314.625 234.242188 315.382812 C 234.535156 315.554688 234.882812 315.730469 235.058594 316.019531 C 236.160156 317.765625 238.195312 318.230469 239.707031 319.449219 C 241.046875 321.019531 242.5 322.417969 244.125 323.636719 C 245.988281 325.089844 247.5 327.066406 250 327.53125 C 250.464844 327.589844 250.929688 327.824219 251.105469 328.40625 C 251.394531 329.394531 252.148438 329.742188 253.082031 330.03125 C 255.929688 330.496094 258.023438 332.476562 260.753906 333.113281 C 262.382812 333.578125 263.777344 334.683594 265.464844 334.859375 C 266.222656 334.976562 266.859375 335.265625 267.558594 335.5 C 268.835938 335.964844 270.117188 336.601562 271.570312 336.601562 C 273.664062 336.601562 275.757812 336.894531 277.789062 336.488281 C 278.546875 336.371094 279.246094 336.488281 280 336.71875 C 280.988281 337.066406 282.035156 337.476562 283.023438 337.300781 C 288.429688 336.835938 291.164062 333.054688 294.828125 329.625 C 295.929688 328.695312 296.628906 327.648438 296.511719 326.078125 C 296.453125 324.800781 296.746094 323.519531 296.164062 322.300781 C 296.339844 319.917969 296.976562 317.300781 295.875 314.972656 C 295.582031 314.335938 295.175781 313.695312 295.234375 312.996094 C 295.582031 310.902344 294.828125 309.160156 293.839844 307.355469 C 293.140625 304.566406 293.023438 301.660156 291.859375 299.042969 C 291.339844 297.53125 291.453125 295.84375 290.640625 294.332031 C 290.234375 293.519531 289.652344 292.53125 289.769531 291.71875 C 290 290.320312 289.476562 289.21875 289.1875 287.996094 C 288.316406 284.683594 286.746094 281.601562 285.929688 278.285156 C 285.640625 276.949219 284.882812 275.726562 284.359375 274.390625 C 283.371094 271.191406 282.617188 267.996094 281.222656 264.914062 C 278.722656 258.867188 277.09375 252.472656 274.652344 246.425781 C 273.894531 244.390625 273.140625 242.472656 272.675781 240.320312 C 272.382812 239.039062 272.09375 237.703125 271.222656 236.597656 C 270.871094 236.132812 270.523438 235.667969 270.347656 235.027344 C 269.476562 232.003906 268.023438 229.15625 267.09375 226.132812 C 266.6875 224.855469 266.453125 223.867188 267.382812 222.761719 C 268.140625 221.65625 269.710938 222.003906 270.289062 220.726562 C 271.394531 219.5625 273.023438 218.867188 274.070312 217.644531 C 275 216.191406 277.210938 216.25 277.5 214.445312 C 277.558594 214.097656 277.734375 213.921875 277.964844 213.75 C 281.511719 211.308594 284.824219 208.398438 288.082031 205.492188 C 289.128906 204.503906 290.347656 203.75 290.988281 202.351562 C 292.382812 201.539062 293.546875 200.316406 294.828125 199.328125 C 295.988281 198.109375 296.628906 196.191406 298.257812 195.550781 C 299.710938 194.792969 300.523438 193.515625 301.398438 192.292969 C 302.035156 190.957031 303.839844 190.957031 304.476562 189.621094 C 305.234375 188.28125 306.046875 187.234375 307.441406 186.421875 C 309.710938 184.851562 311.339844 182.351562 313.082031 180.199219 C 313.605469 179.679688 314.1875 179.210938 314.246094 178.339844 C 314.246094 177.992188 314.476562 177.816406 314.828125 177.699219 C 316.804688 177.234375 317.09375 175.199219 318.140625 173.921875 C 318.492188 173.515625 318.664062 172.933594 319.128906 172.585938 C 319.363281 172.410156 319.59375 172.234375 319.710938 171.945312 C 320.46875 170.027344 322.152344 168.632812 322.675781 166.539062 C 322.792969 165.957031 323.664062 165.957031 323.78125 165.433594 C 323.839844 164.445312 324.710938 163.804688 325.058594 162.933594 C 325.875 160.957031 327.039062 159.210938 327.734375 157.175781 C 328.140625 155.957031 328.257812 154.5625 329.1875 153.515625 C 329.363281 151.246094 330.582031 149.09375 330.058594 146.710938 Z M 329.652344 146.59375 "/></g><path style=" stroke:none;fill-rule:nonzero;fill:#a78bfa;fill-opacity:1;" d="M 316.28125 152.175781 C 312.445312 149.152344 307.152344 149.96875 302.734375 151.1875 C 300.757812 151.945312 298.140625 151.1875 296.453125 152.582031 C 295.523438 153.339844 294.710938 153.515625 293.605469 153.339844 C 290.871094 153.515625 288.082031 153.398438 285.347656 153.746094 C 283.023438 153.164062 280.757812 153.921875 278.429688 153.980469 C 275.929688 153.628906 273.605469 154.5625 271.164062 154.617188 C 267.847656 154.910156 264.417969 154.617188 261.105469 155.433594 C 256.742188 156.074219 252.265625 156.480469 247.847656 156.886719 C 243.082031 157.699219 238.371094 158.164062 233.546875 158.105469 C 230.929688 157.816406 228.023438 159.152344 225.871094 156.769531 C 227.441406 155.433594 227.671875 153.050781 227.03125 151.246094 C 226.917969 150.898438 226.625 150.550781 226.742188 150.140625 C 227.265625 148.746094 225.636719 147.992188 225.695312 146.769531 C 225.871094 145.664062 225 144.617188 225.464844 143.457031 C 224.824219 141.652344 223.71875 139.910156 223.894531 137.816406 C 223.601562 134.910156 223.253906 132.058594 222.089844 129.269531 C 219.066406 121.417969 216.394531 113.394531 213.371094 105.546875 C 212.148438 101.535156 211.042969 97.40625 210.871094 93.222656 C 211.101562 91.710938 210.054688 90.488281 210.230469 89.035156 C 210.519531 85.722656 209.417969 82.640625 209.007812 79.324219 C 207.265625 71.070312 207.324219 66.765625 199.125 62.171875 C 197.847656 61.242188 196.625 62.171875 195.402344 62.695312 C 193.425781 62.871094 194.007812 65.023438 193.890625 66.417969 C 193.890625 66.824219 193.890625 67.230469 193.484375 67.464844 C 191.972656 68.453125 191.21875 70.023438 190.289062 71.476562 C 189.824219 72.523438 188.601562 72.871094 188.367188 74.035156 C 187.613281 76.011719 186.449219 77.753906 185.171875 79.441406 C 183.949219 81.128906 183.253906 82.988281 183.019531 85.023438 C 183.019531 85.546875 182.960938 86.070312 182.671875 86.417969 C 181.972656 87.464844 181.742188 88.570312 181.566406 89.734375 C 181.566406 90.082031 181.507812 90.429688 181.101562 90.546875 C 179.9375 90.953125 179.648438 92.058594 179.125 92.988281 C 178.425781 94.210938 177.613281 95.371094 177.554688 96.824219 C 177.207031 97.347656 176.625 97.640625 176.507812 98.394531 C 174.707031 102.988281 172.03125 107.292969 170.695312 112.058594 C 170.285156 114.328125 169.007812 116.1875 168.195312 118.339844 C 166.914062 122.757812 165.460938 127.175781 163.484375 131.363281 C 162.378906 135.488281 161.042969 139.734375 159.179688 143.628906 C 157.554688 146.070312 157.03125 149.039062 155.519531 151.539062 C 155.636719 152.757812 154.878906 153.628906 154.238281 154.5625 C 153.019531 157.003906 151.566406 154.503906 150.285156 156.128906 C 149.820312 156.769531 149.125 156.769531 148.601562 156.363281 C 146.796875 155.257812 144.355469 156.246094 142.554688 155.199219 C 141.273438 154.503906 139.703125 154.792969 138.597656 153.746094 C 136.972656 153.863281 135.519531 153.222656 133.890625 153.222656 C 131.273438 153.28125 128.714844 152.875 126.273438 152.003906 C 124.179688 151.363281 121.855469 151.480469 119.9375 150.199219 C 118.425781 149.675781 116.738281 150.605469 115.226562 149.734375 C 114.121094 149.734375 112.957031 150.199219 111.855469 150.199219 C 109.121094 149.910156 106.5625 151.128906 103.832031 150.898438 C 101.503906 151.363281 99.238281 152.46875 96.738281 152.46875 C 95.574219 152.46875 94.527344 153.050781 93.480469 153.515625 C 92.261719 153.980469 90.921875 154.039062 89.820312 154.617188 C 87.316406 155.839844 84.585938 156.246094 82.085938 157.351562 C 80.109375 158.574219 77.839844 158.804688 75.691406 159.152344 C 73.304688 159.503906 70.921875 160.027344 68.539062 160.433594 C 64.351562 161.363281 58.828125 160.839844 56.328125 164.96875 C 55.746094 166.074219 55.863281 166.421875 57.027344 166.828125 C 60.746094 168.398438 64.816406 167.757812 68.65625 168.339844 C 70.863281 169.039062 73.074219 169.851562 75.226562 170.664062 C 80.574219 173.804688 85.980469 176.886719 91.15625 180.375 C 92.261719 181.246094 93.65625 181.769531 94.820312 182.585938 C 95.691406 183.167969 96.273438 184.039062 97.203125 184.5625 C 102.433594 187.003906 106.390625 191.25 111.679688 193.515625 C 113.773438 194.039062 115.515625 195.492188 117.203125 196.714844 C 118.714844 198.050781 120.867188 198.167969 122.144531 199.738281 C 122.203125 199.851562 122.4375 199.851562 122.550781 199.851562 C 123.714844 199.851562 124.585938 200.433594 125.285156 201.308594 C 125.691406 201.828125 126.214844 202.0625 126.855469 201.945312 C 127.378906 201.886719 127.902344 201.828125 128.25 202.296875 C 130.460938 204.910156 134.644531 205.085938 135.691406 208.691406 C 136.273438 210.375 138.191406 216.714844 135.632812 217.238281 C 134.585938 217.238281 133.542969 217.644531 132.4375 217.121094 C 129.703125 215.957031 130.109375 220.261719 128.425781 221.367188 C 127.496094 223.808594 127.027344 226.539062 125.285156 228.691406 C 124.761719 229.390625 124.996094 230.378906 124.527344 231.015625 C 123.308594 232.414062 123.074219 234.332031 122.027344 235.84375 C 121.621094 236.425781 121.332031 237.121094 121.332031 237.9375 C 119.296875 244.738281 116.503906 251.425781 115.050781 258.460938 C 114.9375 262.007812 113.480469 265.320312 113.367188 268.867188 C 112.84375 270.726562 112.902344 272.820312 112.378906 274.507812 C 111.796875 275.613281 112.085938 276.949219 111.679688 278.113281 C 110.515625 280.785156 111.214844 283.808594 110.226562 286.484375 C 108.890625 291.253906 108.308594 296.195312 107.902344 301.078125 C 107.609375 304.566406 106.621094 307.9375 106.621094 311.425781 C 106.796875 313.402344 107.902344 314.625 109.878906 314.800781 C 110.457031 314.800781 110.867188 315.03125 111.214844 315.554688 C 112.378906 317.125 113.832031 318.230469 115.925781 318.230469 C 116.5625 318.230469 117.027344 318.054688 117.492188 317.648438 C 121.039062 314.914062 121.855469 309.625 126.449219 308.113281 C 126.914062 307.9375 127.378906 307.707031 127.726562 307.359375 C 129.820312 305.378906 132.4375 304.042969 134.179688 301.71875 C 134.355469 301.484375 134.644531 301.3125 134.878906 301.136719 C 136.914062 300.089844 138.074219 298.054688 139.761719 296.660156 C 141.972656 295.4375 143.714844 293.519531 145.808594 292.183594 C 146.042969 292.007812 146.273438 291.777344 146.332031 291.484375 C 146.449219 290.378906 147.320312 289.796875 148.132812 289.273438 C 149.761719 288.578125 149.53125 286.308594 151.273438 285.960938 C 153.25 285.554688 153.65625 283.34375 155.226562 282.296875 C 157.785156 280.320312 159.820312 277.878906 162.378906 275.902344 C 162.84375 275.554688 163.25 275.089844 163.542969 274.566406 C 164.414062 272.648438 167.03125 272.53125 167.613281 270.4375 C 167.671875 270.03125 168.019531 269.914062 168.367188 269.796875 C 169.761719 269.273438 170.285156 267.820312 171.390625 267.007812 C 172.03125 266.601562 172.671875 266.191406 172.730469 265.320312 C 172.730469 264.972656 173.019531 264.796875 173.367188 264.738281 C 175.171875 264.390625 175.519531 262.820312 176.742188 261.773438 C 178.601562 260.4375 180.113281 258.75 181.566406 257.007812 C 183.425781 254.621094 186.101562 253.226562 188.136719 251.132812 C 188.425781 250.726562 188.832031 250.496094 189.355469 250.320312 C 191.566406 249.679688 192.789062 247.53125 194.9375 246.890625 C 196.914062 245.902344 198.136719 247.703125 199.9375 247.996094 C 200.347656 247.996094 200.753906 248.167969 200.984375 248.460938 C 201.800781 249.332031 202.960938 249.621094 204.066406 249.855469 C 205.636719 250.144531 206.800781 251.25 208.253906 251.714844 C 208.484375 251.773438 208.71875 252.066406 208.894531 252.296875 C 210.054688 254.042969 211.507812 255.4375 213.136719 256.65625 C 213.429688 256.890625 213.835938 257.179688 213.894531 257.53125 C 214.066406 258.984375 215.578125 259.101562 216.394531 260.03125 C 217.148438 260.902344 217.613281 262.066406 218.835938 262.53125 C 218.953125 262.53125 219.066406 262.761719 219.066406 262.878906 C 219.242188 263.632812 219.824219 263.984375 220.347656 264.449219 C 221.917969 265.84375 222.671875 267.878906 224.359375 269.160156 C 226.859375 271.601562 228.71875 274.449219 230.8125 277.238281 C 232.035156 279.101562 234.417969 279.855469 235 282.238281 C 235 282.472656 235.289062 282.648438 235.464844 282.820312 C 236.800781 284.625 238.488281 286.195312 239.648438 288.171875 C 242.207031 290.496094 244.417969 293.171875 246.570312 295.84375 C 249.648438 299.625 253.546875 302.648438 256.453125 306.542969 C 254.011719 305.4375 252.5 302.996094 249.824219 301.949219 C 250.695312 305.378906 248.546875 307.648438 245.40625 305.324219 C 244.417969 304.335938 243.136719 303.753906 242.5 302.472656 C 242.148438 302.066406 241.21875 301.832031 240.988281 301.367188 C 240.523438 299.914062 239.417969 299.566406 238.253906 298.867188 C 237.265625 297.300781 235.8125 296.078125 234.648438 294.625 C 234.011719 293.867188 233.601562 292.878906 232.671875 292.414062 C 231.453125 291.890625 230.695312 290.84375 229.707031 290.089844 C 226.394531 287.355469 224.066406 283.695312 219.941406 281.890625 C 220.753906 283.808594 223.019531 284.390625 223.429688 286.601562 C 223.835938 288.519531 225.8125 289.273438 226.625 290.960938 C 226.742188 291.367188 227.03125 291.660156 227.382812 291.890625 C 227.964844 292.242188 228.3125 292.765625 228.601562 293.34375 C 229.535156 295.148438 230.753906 296.71875 232.441406 297.996094 C 232.847656 298.289062 233.195312 298.636719 233.429688 299.101562 C 234.707031 301.3125 236.800781 302.765625 238.3125 304.800781 C 238.660156 305.496094 239.59375 305.496094 240.113281 306.019531 C 242.148438 307.765625 244.242188 309.449219 246.105469 311.425781 C 247.265625 312.824219 249.128906 313.113281 250.289062 314.449219 C 250.753906 315.03125 251.394531 315.496094 252.09375 315.730469 C 254.707031 316.425781 256.917969 317.996094 258.953125 319.683594 C 261.105469 320.789062 263.253906 321.949219 265.582031 322.589844 C 266.511719 322.824219 267.441406 322.996094 268.371094 322.589844 C 270.988281 321.835938 270.8125 326.484375 277.675781 325.089844 C 280.464844 324.625 280.058594 321.429688 281.28125 319.507812 C 282.792969 316.777344 282.847656 313.636719 282.09375 310.613281 C 281.976562 309.742188 281.804688 308.8125 281.28125 308.113281 C 280.871094 307.589844 280.699219 307.007812 280.582031 306.367188 C 280.234375 302.996094 277.734375 300.4375 276.800781 297.355469 C 275.929688 293.808594 273.722656 290.730469 273.199219 287.066406 C 271.511719 284.683594 270.871094 281.949219 269.941406 279.273438 C 269.882812 279.101562 269.941406 278.867188 269.941406 278.695312 C 270.289062 277.53125 269.300781 276.542969 269.300781 275.4375 C 269.476562 273.113281 267.035156 271.660156 267.617188 269.332031 C 267.789062 266.832031 265.871094 264.738281 266.105469 262.179688 C 266.105469 261.601562 265.871094 261.132812 265.464844 260.726562 C 263.71875 258.808594 264.476562 256.019531 262.964844 253.925781 C 262.324219 253.054688 262.5 251.832031 262.558594 250.785156 C 261.742188 247.761719 260.695312 244.796875 259.476562 241.890625 C 259.242188 240.667969 258.429688 239.621094 258.429688 238.402344 C 258.429688 237.878906 258.3125 237.472656 258.140625 237.003906 C 256.976562 234.914062 257.09375 232.472656 256.335938 230.203125 C 255.929688 228.574219 255.582031 226.949219 254.941406 225.4375 C 254.652344 224.796875 254.707031 224.15625 254.882812 223.574219 C 255.289062 222.179688 255.753906 220.785156 255.695312 219.273438 C 255.695312 218.808594 255.871094 218.402344 256.21875 218.050781 C 257.382812 216.945312 257.152344 215.085938 258.253906 214.039062 C 259.535156 212.703125 261.394531 212.179688 262.847656 211.015625 C 265.40625 208.574219 267.90625 206.015625 270.753906 203.921875 C 275.757812 200.203125 280.8125 196.421875 285.640625 192.46875 C 286.746094 190.898438 288.664062 190.375 289.941406 189.097656 C 295 183.746094 299.941406 178.28125 305.351562 173.28125 C 306.105469 172.585938 306.804688 171.828125 307.09375 170.898438 C 307.617188 169.152344 308.839844 167.875 309.769531 166.363281 C 311.105469 164.328125 313.375 163.109375 314.59375 160.957031 C 315.816406 158.28125 319.421875 154.503906 316.339844 152.058594 Z M 316.28125 152.175781 "/><path style=" stroke:none;fill-rule:nonzero;fill:#1e3a8a;fill-opacity:1;" d="M 314.011719 147.410156 C 315.875 143.980469 314.363281 139.328125 311.046875 137.351562 C 310.234375 136.828125 309.476562 136.59375 308.546875 137.058594 C 308.023438 137.351562 307.386719 137.351562 306.804688 137.351562 C 304.59375 137.175781 302.5 138.046875 300.292969 138.046875 C 298.316406 137.640625 296.628906 139.09375 294.769531 138.746094 C 293.371094 138.457031 291.917969 139.035156 290.523438 138.511719 C 288.839844 138.6875 287.269531 139.675781 285.523438 139.035156 C 285.292969 138.980469 285.058594 139.035156 284.769531 139.152344 C 280 139.96875 275 140.023438 270.117188 139.851562 C 268.488281 139.5 266.859375 140.199219 265.230469 140.023438 C 264.476562 139.910156 263.777344 140.023438 263.023438 140.199219 C 262.152344 140.433594 261.21875 140.546875 260.289062 140.664062 C 259.417969 140.78125 258.777344 140.257812 257.964844 140.375 C 254.417969 140.375 250.988281 140.957031 247.441406 141.363281 C 244.242188 141.421875 241.101562 141.535156 237.964844 142.175781 C 235.058594 142.933594 231.976562 142.058594 229.183594 143.28125 C 228.894531 143.398438 228.601562 143.570312 228.3125 143.398438 C 227.671875 142.875 226.976562 142.816406 226.21875 142.992188 C 225.929688 143.046875 225.636719 142.816406 225.464844 142.582031 C 224.589844 141.535156 223.488281 140.898438 222.265625 140.433594 C 220.054688 139.558594 220.871094 136.769531 219.996094 134.96875 C 218.3125 129.734375 217.441406 124.269531 215.8125 119.035156 C 214.53125 114.792969 213.542969 110.546875 212.554688 106.246094 C 212.03125 103.628906 211.972656 100.722656 210.8125 98.28125 C 210.054688 97.347656 210.460938 96.070312 210.113281 94.964844 C 209.300781 92.699219 208.949219 90.253906 208.136719 87.929688 C 207.847656 87.117188 208.136719 86.1875 207.613281 85.488281 C 206.917969 84.558594 206.859375 83.628906 206.917969 82.523438 C 206.335938 79.265625 204.882812 76.183594 204.066406 72.988281 C 203.3125 70.488281 202.960938 67.8125 201.21875 65.71875 C 200.8125 65.195312 200.460938 64.671875 200.402344 64.035156 C 199.882812 61.765625 196.742188 61.824219 194.9375 62.058594 C 188.890625 62.636719 185.925781 66.125 182.4375 70.605469 C 180.753906 72.695312 179.878906 75.371094 178.195312 77.464844 C 177.207031 78.742188 176.683594 80.253906 175.519531 81.359375 C 174.589844 82.871094 173.773438 84.558594 172.613281 85.894531 C 173.25 82 177.4375 76.941406 175.054688 73.21875 C 174.242188 72.289062 173.425781 72.929688 173.136719 73.917969 C 172.261719 75.605469 171.566406 77.347656 170.578125 78.917969 C 168.425781 82.117188 167.4375 85.894531 165.285156 89.035156 C 165.171875 89.210938 165.171875 89.5 165.113281 89.734375 C 165.113281 90.023438 165.113281 90.371094 164.820312 90.546875 C 163.660156 91.476562 163.832031 93.105469 163.136719 94.265625 C 161.683594 96.300781 161.449219 98.800781 160.285156 100.894531 C 159.472656 102.347656 159.761719 104.210938 158.601562 105.546875 C 158.367188 105.894531 158.601562 106.769531 158.25 107.117188 C 157.613281 107.699219 157.613281 108.511719 157.378906 109.269531 C 156.566406 112.175781 155.691406 115.023438 154.703125 117.816406 C 153.25 122.351562 152.378906 127.351562 150.519531 131.769531 C 150.054688 132.523438 149.761719 133.222656 149.761719 134.09375 C 149.761719 134.617188 149.761719 135.257812 149.296875 135.605469 C 147.726562 136.828125 147.613281 138.804688 146.679688 140.316406 C 145.867188 141.59375 145.226562 143.105469 144.761719 144.617188 C 144.53125 145.433594 143.949219 146.246094 143.132812 146.421875 C 141.914062 146.652344 140.808594 147.351562 139.472656 147.058594 C 139.179688 147.003906 138.890625 147.058594 138.597656 147.175781 C 136.097656 148.28125 133.191406 147.46875 130.867188 148.746094 C 129.527344 149.558594 127.84375 148.105469 126.507812 149.558594 C 126.214844 149.851562 125.75 149.792969 125.34375 149.734375 C 122.492188 149.210938 119.761719 149.851562 116.96875 150.199219 C 115.925781 150.375 114.820312 150.492188 113.773438 150.605469 C 111.914062 150.78125 110.109375 151.886719 108.132812 151.128906 C 105.515625 152.117188 102.726562 151.828125 99.992188 152.0625 C 98.308594 152.0625 96.503906 152.46875 94.820312 153.164062 C 94.003906 153.515625 92.957031 153.921875 91.96875 153.398438 C 91.796875 153.28125 91.503906 153.398438 91.214844 153.398438 C 90.050781 153.515625 88.828125 153.515625 87.785156 154.152344 C 87.492188 154.328125 87.027344 154.328125 86.621094 154.269531 C 85.921875 154.210938 85.339844 154.386719 84.761719 154.675781 C 83.421875 155.257812 81.96875 155.199219 80.515625 155.492188 C 78.363281 155.605469 76.386719 156.769531 74.238281 156.945312 C 73.304688 157.0625 72.375 157.175781 71.5625 157.816406 C 71.386719 157.992188 71.097656 158.050781 70.863281 157.992188 C 68.886719 157.875 67.085938 158.574219 65.28125 159.328125 C 61.269531 160.027344 58.304688 163.164062 57.085938 166.945312 C 56.792969 167.875 56.269531 168.863281 56.851562 169.851562 C 58.015625 171.769531 59.234375 173.746094 61.621094 174.445312 C 61.910156 174.503906 62.257812 174.621094 62.375 174.851562 C 62.839844 175.957031 63.828125 176.597656 64.644531 177.351562 C 67.203125 180.085938 70.222656 182.234375 73.363281 184.214844 C 75.398438 185.839844 77.492188 187.46875 79.644531 188.980469 C 83.421875 191.421875 86.679688 194.621094 90.808594 196.539062 C 93.421875 199.039062 96.796875 200.492188 99.875 202.410156 C 103.480469 204.273438 107.203125 205.785156 110.75 207.820312 C 112.085938 208.574219 113.65625 208.921875 114.9375 209.679688 C 115.574219 210.492188 116.5625 210.84375 117.4375 211.191406 C 120.460938 212.410156 123.425781 213.867188 126.621094 214.503906 C 121.796875 229.273438 118.773438 244.507812 116.332031 259.855469 C 115.457031 265.960938 113.65625 272.472656 113.65625 278.636719 C 113.945312 278.636719 114.121094 278.226562 114.414062 278.636719 C 114.414062 281.019531 113.480469 283.230469 113.191406 285.554688 C 112.84375 288.460938 112.320312 291.308594 111.621094 294.160156 C 111.390625 295.089844 111.214844 296.019531 111.273438 296.949219 C 111.445312 300.613281 110.515625 304.160156 111.214844 307.765625 C 111.503906 309.21875 112.320312 310.378906 112.957031 311.660156 C 113.890625 313.519531 115.75 313.460938 117.378906 313.753906 C 118.597656 314.742188 119.585938 313.636719 120.925781 314.042969 C 121.097656 314.859375 121.273438 316.019531 122.378906 315.671875 C 125.109375 315.089844 127.144531 313.230469 129.472656 311.835938 C 130.691406 311.078125 131.738281 310.207031 132.785156 309.160156 C 133.714844 308.230469 135.226562 307.878906 136.097656 306.660156 C 137.03125 306.660156 137.667969 305.960938 138.132812 305.378906 C 138.949219 304.390625 140.109375 303.695312 141.097656 302.996094 C 141.507812 302.066406 142.496094 301.835938 143.191406 301.3125 C 145.109375 299.742188 147.320312 298.34375 148.714844 296.195312 C 148.832031 295.960938 149.007812 295.789062 149.296875 295.789062 C 150.578125 295.554688 151.214844 294.507812 152.03125 293.636719 C 152.4375 293.230469 152.726562 292.707031 153.308594 292.472656 C 153.65625 292.355469 153.890625 292.125 154.066406 291.832031 C 154.589844 291.019531 155.402344 290.496094 156.042969 289.855469 C 156.914062 288.984375 158.136719 288.636719 158.832031 287.648438 C 159.53125 286.660156 160.402344 285.902344 161.214844 285.03125 C 162.4375 283.519531 163.425781 282.007812 165.34375 281.367188 C 166.449219 280.726562 167.261719 279.507812 167.960938 278.402344 C 168.195312 277.878906 168.660156 277.414062 169.296875 277.238281 C 169.648438 277.125 169.9375 276.949219 170.171875 276.714844 C 171.507812 275.148438 173.253906 273.867188 174.472656 272.238281 C 176.273438 269.972656 178.425781 268.113281 180.171875 265.902344 C 183.308594 262.589844 186.914062 259.621094 189.242188 255.609375 C 189.824219 254.621094 190.402344 254.332031 191.21875 255.03125 C 193.484375 256.601562 196.449219 257.121094 197.671875 259.914062 C 198.195312 260.84375 198.542969 262.066406 199.824219 262.414062 C 200.054688 262.472656 200.171875 262.761719 200.230469 262.996094 C 200.753906 264.625 202.554688 265.4375 202.960938 267.125 C 203.195312 267.820312 204.125 267.878906 204.53125 268.460938 C 213.660156 279.390625 222.324219 290.671875 232.207031 300.902344 C 235.113281 303.925781 238.082031 306.835938 241.277344 309.566406 C 241.800781 310.03125 242.382812 310.4375 243.023438 310.671875 C 244.070312 311.019531 244.070312 311.019531 244.941406 309.914062 C 238.023438 303.8125 231.453125 297.355469 225.289062 290.378906 C 225.695312 290.207031 225.929688 290.320312 226.042969 290.496094 C 227.089844 291.949219 228.953125 292.589844 229.765625 294.21875 C 230.113281 294.742188 231.046875 294.625 231.21875 295.378906 C 231.453125 295.902344 231.859375 296.253906 232.441406 296.367188 C 232.730469 296.367188 233.078125 296.542969 233.195312 296.832031 C 233.777344 298.636719 235.8125 298.984375 236.800781 300.4375 C 237.207031 301.078125 238.136719 301.601562 238.71875 302.242188 C 239.011719 302.53125 239.242188 302.878906 239.707031 302.878906 C 241.742188 303.054688 241.859375 305.847656 243.894531 306.078125 C 244.183594 306.078125 244.359375 306.425781 244.535156 306.660156 C 246.277344 308.8125 248.605469 310.148438 250.929688 311.601562 C 251.800781 312.007812 252.789062 312.414062 252.90625 313.636719 C 252.90625 313.8125 253.140625 313.925781 253.3125 314.042969 C 254.535156 315.148438 256.394531 316.019531 257.324219 317.242188 C 257.90625 318.578125 259.476562 318.8125 260.058594 320.03125 C 262.09375 321.429688 264.1875 322.765625 266.164062 324.277344 C 266.976562 324.859375 268.023438 324.683594 268.835938 325.148438 C 270.757812 326.253906 272.789062 325.03125 274.710938 324.625 C 275.523438 324.394531 276.570312 324.277344 276.800781 323.40625 C 277.269531 321.894531 278.546875 320.671875 278.488281 319.042969 C 278.3125 315.960938 277.324219 313.054688 276.164062 310.207031 C 275.699219 308.230469 275.757812 306.078125 274.882812 304.21875 C 274.1875 302.242188 274.011719 300.148438 273.199219 298.230469 C 272.847656 297.414062 272.675781 296.484375 272.5 295.671875 C 272.269531 294.566406 271.628906 293.578125 271.628906 292.414062 C 271.628906 291.777344 271.335938 291.195312 271.046875 290.613281 C 270.757812 290.03125 270.234375 289.449219 270.582031 288.636719 C 270.640625 288.460938 270.582031 288.230469 270.464844 288.054688 C 269.710938 286.601562 269.824219 284.855469 268.894531 283.519531 C 268.835938 281.308594 267.210938 279.566406 267.152344 277.296875 C 267.152344 276.367188 266.6875 275.320312 266.335938 274.332031 C 265.929688 273.226562 266.046875 271.890625 265.40625 271.078125 C 264.476562 269.914062 264.359375 268.578125 264.128906 267.355469 C 263.835938 265.84375 263.140625 264.449219 262.789062 262.996094 C 261.394531 258.226562 259.59375 253.402344 258.71875 248.519531 C 258.546875 246.074219 257.324219 243.867188 257.382812 241.425781 C 256.917969 239.039062 256.046875 236.65625 255.929688 234.15625 C 255.929688 233.75 255.753906 233.226562 255.523438 232.878906 C 254.59375 231.074219 254.707031 228.980469 254.707031 227.0625 C 254.707031 226.367188 254.59375 225.726562 254.183594 225.085938 C 253.488281 224.039062 253.253906 222.820312 253.3125 221.539062 C 253.3125 220.320312 253.71875 219.097656 253.546875 217.820312 C 253.777344 216.597656 254.59375 215.433594 255.230469 214.386719 C 257.964844 209.273438 263.253906 206.363281 267.09375 202.179688 C 269.59375 199.621094 272.324219 197.292969 274.535156 194.445312 C 283.371094 184.96875 290.988281 174.269531 300.351562 165.257812 C 296.453125 170.898438 291.917969 176.074219 287.734375 181.421875 C 285.234375 184.621094 282.558594 187.585938 280.234375 190.898438 C 279.941406 191.363281 279.476562 191.769531 279.535156 192.527344 C 282.617188 190.667969 284.535156 187.992188 286.917969 185.433594 C 290.523438 181.480469 294.128906 177.46875 297.734375 173.574219 C 304.011719 166.1875 311.105469 159.039062 314.070312 149.617188 C 314.480469 148.804688 314.652344 147.875 313.78125 147.234375 Z M 171.742188 88.105469 C 172.089844 88.859375 171.855469 89.152344 171.21875 89.441406 C 171.101562 88.859375 171.21875 88.511719 171.742188 88.105469 Z M 118.191406 264.332031 C 117.667969 266.601562 117.085938 268.867188 116.503906 271.078125 C 116.273438 271.890625 116.503906 272.761719 115.691406 273.75 C 117.609375 261.191406 120.980469 249.097656 123.65625 236.714844 C 125.285156 229.332031 126.972656 222.003906 129.121094 214.796875 C 130.109375 214.5625 131.332031 214.621094 130.867188 215.898438 C 129.527344 220.726562 127.726562 225.4375 126.621094 230.320312 C 125.285156 234.273438 124.121094 238.226562 123.539062 242.414062 C 123.074219 244.390625 122.320312 246.308594 122.320312 248.34375 C 122.320312 250.609375 120.226562 252.414062 120.691406 254.738281 C 120.75 255.089844 120.691406 255.4375 120.574219 255.726562 C 119.414062 258.460938 118.949219 261.425781 118.25 264.332031 Z M 297.269531 156.015625 C 294.652344 158.804688 292.210938 162.0625 289.417969 164.675781 C 288.140625 165.78125 287.328125 167.351562 285.640625 167.933594 C 285.523438 167.933594 285.347656 168.109375 285.292969 168.222656 C 284.417969 170.199219 282.441406 171.246094 280.988281 172.699219 C 279.359375 174.269531 278.371094 176.597656 276.222656 177.527344 C 275.234375 177.875 274.59375 178.515625 274.476562 179.5625 C 274.417969 180.085938 274.128906 180.375 273.664062 180.722656 C 272.382812 181.597656 271.164062 182.527344 269.882812 183.339844 C 268.953125 183.921875 268.371094 185.027344 267.5 185.78125 C 265.988281 187.0625 264.59375 188.457031 263.71875 190.316406 C 262.441406 190.609375 261.742188 191.828125 260.582031 192.351562 C 260.289062 192.46875 259.941406 192.527344 259.824219 192.816406 C 259.476562 194.039062 258.253906 194.5625 257.617188 195.550781 C 257.558594 195.667969 257.441406 195.839844 257.324219 195.898438 C 255.695312 196.65625 255 198.226562 254.070312 199.679688 C 252.730469 201.714844 250.117188 202.351562 249.070312 204.5625 C 248.253906 205.726562 247.035156 206.480469 246.570312 207.875 C 246.453125 208.226562 246.277344 208.515625 245.929688 208.691406 C 243.546875 210.203125 242.789062 212.527344 242.035156 215.085938 C 240.871094 214.738281 240.464844 215.378906 240.058594 216.421875 C 237.613281 223.867188 242.035156 231.132812 244.183594 238.167969 C 244.417969 238.75 244.535156 239.449219 244.882812 239.972656 C 246.628906 242.9375 246.453125 246.542969 248.195312 249.566406 C 249.128906 251.65625 249.128906 254.097656 250.347656 256.132812 C 251.277344 257.644531 251.570312 259.507812 251.800781 261.25 C 252.730469 262.472656 252.558594 263.984375 252.90625 265.378906 C 253.371094 267.179688 254.070312 268.925781 254.652344 270.726562 C 255.058594 271.890625 255.523438 273.054688 256.105469 274.160156 C 256.628906 275.03125 256.570312 276.078125 256.683594 277.066406 C 256.859375 278.695312 257.617188 280.089844 258.082031 281.601562 C 258.195312 281.949219 258.429688 282.238281 258.429688 282.589844 C 258.546875 284.855469 259.417969 286.890625 259.824219 289.101562 C 260.230469 292.648438 262.558594 295.789062 262.675781 299.332031 C 263.605469 301.367188 263.546875 303.753906 264.417969 305.730469 C 265.582031 308.984375 267.382812 312.007812 268.082031 315.4375 C 267.382812 315.847656 266.917969 315.613281 266.570312 315.324219 C 263.429688 312.882812 260.871094 309.800781 257.847656 307.242188 C 254.941406 304.625 252.441406 301.660156 249.417969 299.277344 C 247.847656 297.765625 246.683594 295.84375 244.882812 294.566406 C 236.917969 286.484375 229.183594 278.171875 220.929688 270.378906 C 216.21875 266.191406 211.683594 261.890625 207.207031 257.355469 C 204.589844 255.03125 201.800781 252.996094 199.125 250.726562 C 198.253906 249.914062 197.324219 249.214844 196.042969 249.097656 C 194.066406 248.285156 192.03125 247.414062 189.9375 246.714844 C 189.53125 246.542969 189.007812 246.484375 188.660156 246.714844 C 187.902344 247.179688 187.03125 247.121094 186.21875 247.238281 C 183.253906 247.761719 180.402344 249.15625 178.484375 251.542969 C 177.671875 252.703125 176.449219 253.578125 175.34375 254.507812 C 173.425781 256.019531 172.4375 258.34375 170.285156 259.679688 C 169.53125 260.320312 168.71875 260.902344 168.136719 261.714844 C 166.625 263.867188 164.472656 265.378906 162.496094 267.066406 C 157.960938 271.191406 153.019531 274.972656 148.832031 279.566406 C 146.566406 280.960938 144.296875 282.414062 142.726562 284.625 C 142.089844 285.613281 140.925781 285.785156 140.167969 286.542969 C 138.191406 288.519531 135.867188 290.148438 134.121094 292.355469 C 133.949219 292.589844 133.714844 292.820312 133.425781 292.878906 C 132.667969 293.113281 132.203125 293.695312 131.738281 294.277344 C 129.179688 296.367188 126.914062 298.867188 124.414062 301.078125 C 123.832031 301.601562 124.238281 302.878906 123.308594 302.996094 C 121.855469 303.171875 121.214844 304.335938 119.992188 304.914062 C 119.355469 304.390625 119.414062 303.636719 119.527344 302.996094 C 119.878906 301.484375 119.761719 299.914062 119.878906 298.402344 C 119.878906 297.648438 119.878906 296.832031 120.285156 296.078125 C 120.632812 295.4375 120.285156 294.800781 120.050781 294.160156 C 121.449219 292.996094 120.167969 291.019531 121.214844 289.625 C 121.449219 289.332031 121.332031 288.984375 121.332031 288.636719 C 121.390625 287.355469 122.378906 286.136719 121.796875 284.742188 C 124.414062 281.71875 122.785156 277.238281 124.585938 273.925781 C 124.761719 272.066406 126.15625 270.4375 125.867188 268.460938 C 125.808594 267.996094 125.75 267.53125 126.039062 267.179688 C 126.796875 266.25 126.914062 265.089844 127.378906 264.042969 C 127.726562 263.226562 127.726562 262.53125 127.378906 261.65625 C 129.414062 259.914062 126.855469 259.273438 128.484375 257.414062 C 130.226562 254.972656 128.65625 251.890625 130.285156 249.449219 C 130.574219 248.925781 130.808594 248.460938 130.691406 247.761719 C 130.167969 245.902344 131.972656 244.449219 131.738281 242.585938 C 131.738281 242.296875 131.738281 241.949219 131.972656 241.714844 C 133.542969 239.972656 132.609375 237.761719 133.019531 235.726562 C 133.484375 233.75 133.132812 231.714844 133.542969 229.738281 C 133.949219 226.132812 134.996094 222.644531 135.632812 219.097656 C 135.75 218.050781 136.332031 217.46875 137.261719 217.003906 C 138.597656 216.367188 138.597656 216.308594 138.425781 214.855469 C 138.425781 213.398438 137.4375 212.238281 137.03125 210.957031 C 136.855469 209.039062 135.054688 208.574219 133.714844 207.820312 C 132.320312 206.421875 130.226562 206.191406 128.714844 204.96875 C 126.039062 204.332031 124.003906 202.351562 121.390625 201.421875 C 119.472656 200.726562 117.667969 199.679688 115.925781 198.515625 C 114.761719 197.816406 113.425781 197.527344 112.4375 196.539062 C 110.226562 196.539062 108.890625 194.445312 106.738281 194.214844 C 104.992188 193.109375 103.191406 192.292969 101.445312 191.25 C 99.238281 189.738281 96.679688 188.863281 94.46875 187.292969 C 92.898438 186.480469 91.15625 185.957031 90.050781 184.445312 C 89.003906 182.816406 86.796875 182.816406 85.398438 181.597656 C 83.945312 180.144531 82.144531 179.15625 80.632812 177.816406 C 80.167969 177.234375 79.585938 176.710938 78.886719 176.480469 C 77.316406 175.957031 76.097656 174.792969 74.585938 174.269531 C 71.445312 172.992188 69.003906 170.550781 65.804688 169.386719 C 65.167969 169.210938 64.816406 168.632812 64.527344 167.875 C 66.269531 165.957031 69.121094 166.652344 71.15625 165.316406 C 71.269531 165.257812 71.445312 165.140625 71.5625 165.140625 C 73.304688 165.316406 74.816406 164.445312 76.445312 164.039062 C 77.898438 163.6875 79.46875 164.152344 80.75 163.164062 C 83.65625 162.699219 86.503906 161.710938 89.46875 161.480469 C 90.285156 161.480469 91.15625 161.1875 91.910156 160.78125 C 94.585938 159.675781 97.609375 160.257812 100.398438 159.5625 C 104.761719 158.574219 109.179688 157.933594 113.597656 157.699219 C 123.65625 156.769531 133.714844 155.316406 143.425781 152.527344 C 144.589844 152.117188 145.984375 151.652344 146.796875 150.722656 C 148.601562 147.816406 151.214844 145.492188 152.84375 142.46875 C 153.484375 141.304688 154.296875 140.257812 154.53125 138.921875 C 154.53125 138.570312 154.761719 138.222656 154.996094 137.992188 C 157.554688 135.488281 158.136719 131.886719 159.996094 128.976562 C 163.308594 124.5 164.238281 118.804688 167.207031 114.210938 C 168.71875 111.652344 169.761719 108.859375 170.695312 106.070312 C 170.867188 105.488281 171.101562 104.964844 171.625 104.617188 C 173.078125 103.394531 172.671875 101.070312 174.242188 99.847656 C 175.230469 98.046875 176.160156 96.011719 176.796875 93.976562 C 176.914062 93.511719 177.03125 93.105469 177.320312 92.757812 C 179.125 90.664062 180.230469 88.164062 181.390625 85.722656 C 182.960938 81.882812 185.171875 78.453125 187.613281 75.082031 C 188.019531 73.976562 188.890625 73.21875 189.707031 72.40625 C 190.578125 70.546875 192.207031 69.671875 193.949219 68.917969 C 194.414062 68.976562 194.589844 69.324219 194.589844 69.671875 C 195.113281 72.929688 196.914062 75.777344 197.671875 78.976562 C 198.371094 81.242188 198.601562 83.6875 199.707031 85.835938 C 200.113281 86.59375 200.171875 87.40625 200.289062 88.277344 C 200.578125 90.253906 200.636719 92.347656 201.625 94.210938 C 201.914062 94.789062 202.089844 95.429688 202.148438 96.070312 C 202.382812 98.570312 203.253906 100.953125 203.3125 103.511719 C 203.3125 104.210938 203.601562 104.847656 203.777344 105.546875 C 203.894531 106.070312 204.125 106.59375 203.949219 107.175781 C 203.949219 107.292969 203.894531 107.523438 203.949219 107.640625 C 204.765625 109.152344 204.53125 110.953125 205.289062 112.464844 C 206.042969 115.082031 206.101562 117.875 207.382812 120.316406 C 208.253906 122.117188 207.613281 124.152344 208.601562 125.953125 C 209.125 127.117188 208.949219 128.398438 209.300781 129.617188 C 209.648438 130.664062 209.941406 131.769531 209.707031 132.988281 C 209.53125 133.863281 210.171875 134.675781 210.289062 135.546875 C 210.519531 137.058594 210.289062 138.746094 211.277344 140.140625 C 211.453125 140.375 211.453125 140.722656 211.394531 141.011719 C 211.160156 142.640625 211.507812 144.09375 212.265625 145.546875 C 213.835938 148.105469 214.472656 151.421875 217.441406 152.875 C 220.988281 155.605469 222.730469 155.722656 227.148438 155.433594 C 231.101562 155.140625 235.230469 155.433594 239.125 154.503906 C 240.230469 154.152344 241.335938 153.863281 242.5 154.210938 C 242.847656 154.328125 243.195312 154.210938 243.488281 154.09375 C 245.347656 153.457031 247.382812 152.640625 249.417969 152.816406 C 253.082031 153.222656 256.511719 151.539062 260.175781 151.652344 C 263.023438 150.898438 265.929688 150.257812 268.953125 150.316406 C 270.8125 150.316406 272.617188 149.96875 274.417969 149.558594 C 278.664062 149.210938 283.023438 149.152344 287.269531 148.398438 C 288.023438 148.222656 288.839844 147.992188 289.59375 148.28125 C 291.746094 148.28125 293.894531 147.699219 296.105469 147.527344 C 297.386719 147.175781 298.488281 148.046875 299.769531 147.640625 C 300.757812 147.351562 301.453125 148.046875 302.09375 148.628906 C 302.441406 148.980469 302.328125 149.503906 301.976562 149.851562 C 300 151.769531 299.011719 154.386719 297.035156 156.363281 Z M 301.28125 164.5625 C 301.398438 163.785156 301.863281 163.109375 302.675781 162.527344 C 302.328125 163.515625 301.863281 163.980469 301.28125 164.5625 Z M 301.28125 164.5625 "/></g></svg>